<svg width="15" height="11" viewBox="0 0 15 11" fill="none" xmlns="http://www.w3.org/2000/svg">
<path d="M7.51004 5.99805L2.95646 9.98242C2.64173 10.2578 2.1328 10.2578 1.82142 9.98242L1.06472 9.32031C0.749991 9.04492 0.749991 8.59961 1.06472 8.32715L4.2924 5.50293L1.06472 2.67871C0.749991 2.40332 0.749991 1.95801 1.06472 1.68555L1.81807 1.01758C2.1328 0.742188 2.64173 0.742188 2.95312 1.01758L7.50669 5.00195C7.82477 5.27734 7.82477 5.72266 7.51004 5.99805V5.99805ZM13.9386 5.00195L9.38504 1.01758C9.0703 0.742188 8.56138 0.742188 8.24999 1.01758L7.4933 1.67969C7.17856 1.95508 7.17856 2.40039 7.4933 2.67285L10.721 5.49707L7.4933 8.32129C7.17856 8.59668 7.17856 9.04199 7.4933 9.31445L8.24999 9.97656C8.56472 10.252 9.07365 10.252 9.38504 9.97656L13.9386 5.99219C14.2533 5.72266 14.2533 5.27734 13.9386 5.00195Z" fill="white"/>
</svg>
