<svg width="38" height="42" viewBox="0 0 38 42" fill="none" xmlns="http://www.w3.org/2000/svg">
<g clip-path="url(#clip0)">
<path d="M35.2891 14.9043C35.1354 13.6275 35.1138 11.4285 36.1867 10.6901C36.2059 10.6766 36.2202 10.657 36.2369 10.6402C37.1141 10.3301 37.7212 9.89492 37.2447 9.30931L24.3048 5L3.35234 8.2197C3.35234 8.2197 0.953014 8.59874 1.16735 12.7188C1.28371 14.9612 1.92002 16.0624 2.47651 16.6044L0.757162 17.1771C0.279951 17.7627 0.886898 18.1981 1.76421 18.5076C1.78088 18.5249 1.79494 18.5444 1.81444 18.5579C2.8867 19.2969 2.86606 21.4957 2.71182 22.7727C-1.14023 23.9817 0.242527 24.3756 0.242527 24.3756L1.08751 24.6016C0.493154 25.1952 -0.0971235 26.3209 0.0134472 28.4559C0.227897 32.5752 2.19866 32.8595 2.19866 32.8595L15.9099 37.7852L36.6053 32.2448C36.6053 32.2448 37.9885 31.8502 34.1354 30.6412C33.9805 29.3662 33.959 27.1676 35.0337 26.4267C35.0534 26.4136 35.0678 26.3936 35.0838 26.3771C35.9611 26.067 36.5676 25.6322 36.091 25.0466L35.1915 24.7464C35.7914 24.3465 36.6925 23.3015 36.8337 20.5871C36.9311 18.72 36.4904 17.6265 35.9803 16.9827L37.7583 16.5072C37.7584 16.5079 39.1416 16.1133 35.2891 14.9043ZM17.9786 14.8515L21.4588 14.061L33.2199 11.3896L34.9721 10.9913C34.4123 12.1239 34.4357 13.6739 34.5284 14.6701C34.5487 14.8955 34.572 15.1013 34.5947 15.2577L32.6768 15.7848L17.8323 19.8664L17.9786 14.8515ZM3.02913 18.8604L4.78114 19.2587L16.076 21.825L17.0628 22.0484L20.0219 22.7206L20.1678 27.7356L4.91088 23.5402L3.40677 23.1271C3.42889 22.9704 3.45225 22.7648 3.47346 22.5388C3.56554 21.5433 3.58947 19.993 3.02913 18.8604ZM2.34847 12.5205C2.32727 11.4246 2.50395 10.6321 2.86107 10.2292C3.08833 9.972 3.35654 9.91848 3.54048 9.91848C3.63767 9.91848 3.70764 9.9334 3.7124 9.9334L12.7403 13.1864L17.2444 14.8095L17.0967 19.8595L4.46077 15.944L3.79394 15.7376C3.76945 15.7299 3.73622 15.7246 3.71059 15.7234C3.65854 15.7193 2.40926 15.5922 2.34847 12.5205ZM15.9425 35.5974L2.64015 31.4753C2.61554 31.4674 2.58265 31.4622 2.55703 31.4608C2.50406 31.4569 1.25422 31.3299 1.19377 28.259C1.17223 27.1617 1.34982 26.3699 1.70626 25.9667C1.93409 25.7095 2.20241 25.656 2.38601 25.656C2.48342 25.656 2.55317 25.6704 2.55827 25.6704C2.55827 25.6704 2.55884 25.6704 2.55827 25.6704L16.0894 30.5473L15.9425 35.5974ZM33.3736 30.4073C33.3945 30.6334 33.4179 30.8388 33.4406 30.9955L16.6779 35.6045L16.8244 30.5895L20.4081 29.7752L20.9374 29.9167L22.9211 29.2041L32.0651 27.1273L33.818 26.7287C33.2576 27.8612 33.2808 29.4118 33.3736 30.4073ZM34.2969 23.5917C34.2664 23.5925 34.2359 23.597 34.2072 23.607L32.943 23.9982L20.9052 27.7289L20.758 22.679L24.7074 21.2552L34.2706 17.8081C34.2719 17.8075 34.7737 17.6843 35.142 18.0983C35.4986 18.5011 35.6755 19.2937 35.6546 20.3896C35.5922 23.4602 34.3424 23.5878 34.2969 23.5917Z" fill="#5D5FEF"/>
</g>
<defs>
<clipPath id="clip0">
<rect width="38" height="42" fill="white"/>
</clipPath>
</defs>
</svg>
