<svg width="151" height="42" viewBox="0 0 151 42" fill="none" xmlns="http://www.w3.org/2000/svg">
<path d="M72.88 21.224C73.616 21.384 74.1813 21.704 74.576 22.184C74.9813 22.6533 75.184 23.2613 75.184 24.008C75.184 24.968 74.8267 25.7093 74.112 26.232C73.408 26.744 72.3627 27 70.976 27H65.824V15.8H70.656C71.904 15.8 72.8693 16.0507 73.552 16.552C74.2453 17.0533 74.592 17.7627 74.592 18.68C74.592 19.2987 74.4373 19.8267 74.128 20.264C73.8293 20.6907 73.4133 21.0107 72.88 21.224ZM67.008 16.776V20.84H70.576C71.4827 20.84 72.1813 20.6693 72.672 20.328C73.1627 19.976 73.408 19.4693 73.408 18.808C73.408 18.1467 73.1627 17.6453 72.672 17.304C72.1813 16.952 71.4827 16.776 70.576 16.776H67.008ZM70.96 26.024C71.9627 26.024 72.72 25.8533 73.232 25.512C73.744 25.1707 74 24.6373 74 23.912C74 22.5147 72.9867 21.816 70.96 21.816H67.008V26.024H70.96ZM81.0865 27.08C80.2758 27.08 79.5452 26.8987 78.8945 26.536C78.2438 26.1627 77.7318 25.6507 77.3585 25C76.9852 24.3493 76.7985 23.6133 76.7985 22.792C76.7985 21.9707 76.9852 21.2347 77.3585 20.584C77.7318 19.9333 78.2438 19.4267 78.8945 19.064C79.5452 18.7013 80.2758 18.52 81.0865 18.52C81.8972 18.52 82.6278 18.7013 83.2785 19.064C83.9292 19.4267 84.4358 19.9333 84.7985 20.584C85.1718 21.2347 85.3585 21.9707 85.3585 22.792C85.3585 23.6133 85.1718 24.3493 84.7985 25C84.4358 25.6507 83.9292 26.1627 83.2785 26.536C82.6278 26.8987 81.8972 27.08 81.0865 27.08ZM81.0865 26.072C81.6838 26.072 82.2172 25.9387 82.6865 25.672C83.1665 25.3947 83.5398 25.0053 83.8065 24.504C84.0732 24.0027 84.2065 23.432 84.2065 22.792C84.2065 22.152 84.0732 21.5813 83.8065 21.08C83.5398 20.5787 83.1665 20.1947 82.6865 19.928C82.2172 19.6507 81.6838 19.512 81.0865 19.512C80.4892 19.512 79.9505 19.6507 79.4705 19.928C79.0012 20.1947 78.6278 20.5787 78.3505 21.08C78.0838 21.5813 77.9505 22.152 77.9505 22.792C77.9505 23.432 78.0838 24.0027 78.3505 24.504C78.6278 25.0053 79.0012 25.3947 79.4705 25.672C79.9505 25.9387 80.4892 26.072 81.0865 26.072ZM91.1178 27.08C90.3071 27.08 89.5764 26.8987 88.9258 26.536C88.2751 26.1627 87.7631 25.6507 87.3898 25C87.0164 24.3493 86.8298 23.6133 86.8298 22.792C86.8298 21.9707 87.0164 21.2347 87.3898 20.584C87.7631 19.9333 88.2751 19.4267 88.9258 19.064C89.5764 18.7013 90.3071 18.52 91.1178 18.52C91.9284 18.52 92.6591 18.7013 93.3098 19.064C93.9604 19.4267 94.4671 19.9333 94.8298 20.584C95.2031 21.2347 95.3898 21.9707 95.3898 22.792C95.3898 23.6133 95.2031 24.3493 94.8298 25C94.4671 25.6507 93.9604 26.1627 93.3098 26.536C92.6591 26.8987 91.9284 27.08 91.1178 27.08ZM91.1178 26.072C91.7151 26.072 92.2484 25.9387 92.7178 25.672C93.1978 25.3947 93.5711 25.0053 93.8378 24.504C94.1044 24.0027 94.2378 23.432 94.2378 22.792C94.2378 22.152 94.1044 21.5813 93.8378 21.08C93.5711 20.5787 93.1978 20.1947 92.7178 19.928C92.2484 19.6507 91.7151 19.512 91.1178 19.512C90.5204 19.512 89.9818 19.6507 89.5018 19.928C89.0324 20.1947 88.6591 20.5787 88.3818 21.08C88.1151 21.5813 87.9818 22.152 87.9818 22.792C87.9818 23.432 88.1151 24.0027 88.3818 24.504C88.6591 25.0053 89.0324 25.3947 89.5018 25.672C89.9818 25.9387 90.5204 26.072 91.1178 26.072ZM100.829 22.776L98.845 24.6V27H97.709V15.128H98.845V23.176L103.869 18.584H105.277L101.677 22.024L105.613 27H104.221L100.829 22.776ZM109.324 27.08C108.642 27.08 107.986 26.984 107.356 26.792C106.738 26.5893 106.252 26.3387 105.9 26.04L106.412 25.144C106.764 25.4213 107.207 25.6507 107.74 25.832C108.274 26.0027 108.828 26.088 109.404 26.088C110.172 26.088 110.738 25.9707 111.1 25.736C111.474 25.4907 111.66 25.1493 111.66 24.712C111.66 24.4027 111.559 24.1627 111.356 23.992C111.154 23.8107 110.898 23.6773 110.588 23.592C110.279 23.496 109.868 23.4053 109.356 23.32C108.674 23.192 108.124 23.064 107.708 22.936C107.292 22.7973 106.935 22.568 106.636 22.248C106.348 21.928 106.204 21.4853 106.204 20.92C106.204 20.216 106.498 19.64 107.084 19.192C107.671 18.744 108.487 18.52 109.532 18.52C110.076 18.52 110.62 18.5947 111.164 18.744C111.708 18.8827 112.156 19.0693 112.508 19.304L112.012 20.216C111.319 19.736 110.492 19.496 109.532 19.496C108.807 19.496 108.258 19.624 107.884 19.88C107.522 20.136 107.34 20.472 107.34 20.888C107.34 21.208 107.442 21.464 107.644 21.656C107.858 21.848 108.119 21.992 108.428 22.088C108.738 22.1733 109.164 22.264 109.708 22.36C110.38 22.488 110.919 22.616 111.324 22.744C111.73 22.872 112.076 23.0907 112.364 23.4C112.652 23.7093 112.796 24.136 112.796 24.68C112.796 25.416 112.487 26.0027 111.868 26.44C111.26 26.8667 110.412 27.08 109.324 27.08ZM119.329 26.488C119.115 26.68 118.849 26.8293 118.529 26.936C118.219 27.032 117.894 27.08 117.553 27.08C116.763 27.08 116.155 26.8667 115.729 26.44C115.302 26.0133 115.089 25.4107 115.089 24.632V19.544H113.585V18.584H115.089V16.744H116.225V18.584H118.785V19.544H116.225V24.568C116.225 25.0693 116.347 25.4533 116.593 25.72C116.849 25.976 117.211 26.104 117.681 26.104C117.915 26.104 118.139 26.0667 118.353 25.992C118.577 25.9173 118.769 25.8107 118.929 25.672L119.329 26.488ZM124.54 27.08C123.729 27.08 122.998 26.8987 122.348 26.536C121.697 26.1627 121.185 25.6507 120.812 25C120.438 24.3493 120.252 23.6133 120.252 22.792C120.252 21.9707 120.438 21.2347 120.812 20.584C121.185 19.9333 121.697 19.4267 122.348 19.064C122.998 18.7013 123.729 18.52 124.54 18.52C125.35 18.52 126.081 18.7013 126.732 19.064C127.382 19.4267 127.889 19.9333 128.252 20.584C128.625 21.2347 128.812 21.9707 128.812 22.792C128.812 23.6133 128.625 24.3493 128.252 25C127.889 25.6507 127.382 26.1627 126.732 26.536C126.081 26.8987 125.35 27.08 124.54 27.08ZM124.54 26.072C125.137 26.072 125.67 25.9387 126.14 25.672C126.62 25.3947 126.993 25.0053 127.26 24.504C127.526 24.0027 127.66 23.432 127.66 22.792C127.66 22.152 127.526 21.5813 127.26 21.08C126.993 20.5787 126.62 20.1947 126.14 19.928C125.67 19.6507 125.137 19.512 124.54 19.512C123.942 19.512 123.404 19.6507 122.924 19.928C122.454 20.1947 122.081 20.5787 121.804 21.08C121.537 21.5813 121.404 22.152 121.404 22.792C121.404 23.432 121.537 24.0027 121.804 24.504C122.081 25.0053 122.454 25.3947 122.924 25.672C123.404 25.9387 123.942 26.072 124.54 26.072ZM132.219 20.232C132.486 19.6667 132.88 19.24 133.403 18.952C133.936 18.664 134.592 18.52 135.371 18.52V19.624L135.099 19.608C134.214 19.608 133.52 19.88 133.019 20.424C132.518 20.968 132.267 21.7307 132.267 22.712V27H131.131V18.584H132.219V20.232ZM144.678 23.144H137.638C137.702 24.0187 138.038 24.728 138.646 25.272C139.254 25.8053 140.022 26.072 140.95 26.072C141.472 26.072 141.952 25.9813 142.39 25.8C142.827 25.608 143.206 25.3307 143.526 24.968L144.166 25.704C143.792 26.152 143.323 26.4933 142.758 26.728C142.203 26.9627 141.59 27.08 140.918 27.08C140.054 27.08 139.286 26.8987 138.614 26.536C137.952 26.1627 137.435 25.6507 137.062 25C136.688 24.3493 136.502 23.6133 136.502 22.792C136.502 21.9707 136.678 21.2347 137.03 20.584C137.392 19.9333 137.883 19.4267 138.502 19.064C139.131 18.7013 139.835 18.52 140.614 18.52C141.392 18.52 142.091 18.7013 142.71 19.064C143.328 19.4267 143.814 19.9333 144.166 20.584C144.518 21.224 144.694 21.96 144.694 22.792L144.678 23.144ZM140.614 19.496C139.803 19.496 139.12 19.7573 138.566 20.28C138.022 20.792 137.712 21.464 137.638 22.296H143.606C143.531 21.464 143.216 20.792 142.662 20.28C142.118 19.7573 141.435 19.496 140.614 19.496Z" fill="#241400"/>
<g clip-path="url(#clip0)">
<path d="M35.2891 14.9043C35.1354 13.6275 35.1138 11.4285 36.1867 10.6901C36.2059 10.6766 36.2202 10.657 36.2369 10.6402C37.1141 10.3301 37.7212 9.89492 37.2447 9.30931L24.3048 5L3.35234 8.2197C3.35234 8.2197 0.953014 8.59874 1.16735 12.7188C1.28371 14.9612 1.92002 16.0624 2.47651 16.6044L0.757162 17.1771C0.279951 17.7627 0.886898 18.1981 1.76421 18.5076C1.78088 18.5249 1.79494 18.5444 1.81444 18.5579C2.8867 19.2969 2.86606 21.4957 2.71182 22.7727C-1.14023 23.9817 0.242527 24.3756 0.242527 24.3756L1.08751 24.6016C0.493154 25.1952 -0.0971235 26.3209 0.0134472 28.4559C0.227897 32.5752 2.19866 32.8595 2.19866 32.8595L15.9099 37.7852L36.6053 32.2448C36.6053 32.2448 37.9885 31.8502 34.1354 30.6412C33.9805 29.3662 33.959 27.1676 35.0337 26.4267C35.0534 26.4136 35.0678 26.3936 35.0838 26.3771C35.9611 26.067 36.5676 25.6322 36.091 25.0466L35.1915 24.7464C35.7914 24.3465 36.6925 23.3015 36.8337 20.5871C36.9311 18.72 36.4904 17.6265 35.9803 16.9827L37.7583 16.5072C37.7584 16.5079 39.1416 16.1133 35.2891 14.9043ZM17.9786 14.8515L21.4588 14.061L33.2199 11.3896L34.9721 10.9913C34.4123 12.1239 34.4357 13.6739 34.5284 14.6701C34.5487 14.8955 34.572 15.1013 34.5947 15.2577L32.6768 15.7848L17.8323 19.8664L17.9786 14.8515ZM3.02913 18.8604L4.78114 19.2587L16.076 21.825L17.0628 22.0484L20.0219 22.7206L20.1678 27.7356L4.91088 23.5402L3.40677 23.1271C3.42889 22.9704 3.45225 22.7648 3.47346 22.5388C3.56554 21.5433 3.58947 19.993 3.02913 18.8604ZM2.34847 12.5205C2.32727 11.4246 2.50395 10.6321 2.86107 10.2292C3.08833 9.972 3.35654 9.91848 3.54048 9.91848C3.63767 9.91848 3.70764 9.9334 3.7124 9.9334L12.7403 13.1864L17.2444 14.8095L17.0967 19.8595L4.46077 15.944L3.79394 15.7376C3.76945 15.7299 3.73622 15.7246 3.71059 15.7234C3.65854 15.7193 2.40926 15.5922 2.34847 12.5205ZM15.9425 35.5974L2.64015 31.4753C2.61554 31.4674 2.58265 31.4622 2.55703 31.4608C2.50406 31.4569 1.25422 31.3299 1.19377 28.259C1.17223 27.1617 1.34982 26.3699 1.70626 25.9667C1.93409 25.7095 2.20241 25.656 2.38601 25.656C2.48342 25.656 2.55317 25.6704 2.55827 25.6704C2.55827 25.6704 2.55884 25.6704 2.55827 25.6704L16.0894 30.5473L15.9425 35.5974ZM33.3736 30.4073C33.3945 30.6334 33.4179 30.8388 33.4406 30.9955L16.6779 35.6045L16.8244 30.5895L20.4081 29.7752L20.9374 29.9167L22.9211 29.2041L32.0651 27.1273L33.818 26.7287C33.2576 27.8612 33.2808 29.4118 33.3736 30.4073ZM34.2969 23.5917C34.2664 23.5925 34.2359 23.597 34.2072 23.607L32.943 23.9982L20.9052 27.7289L20.758 22.679L24.7074 21.2552L34.2706 17.8081C34.2719 17.8075 34.7737 17.6843 35.142 18.0983C35.4986 18.5011 35.6755 19.2937 35.6546 20.3896C35.5922 23.4602 34.3424 23.5878 34.2969 23.5917Z" fill="#5D5FEF"/>
</g>
<defs>
<clipPath id="clip0">
<rect width="38" height="42" fill="white"/>
</clipPath>
</defs>
</svg>
