<svg width="129" height="42" viewBox="0 0 129 42" fill="none" xmlns="http://www.w3.org/2000/svg">
<path d="M70.66 21.668C71.212 21.788 71.636 22.028 71.932 22.388C72.236 22.74 72.388 23.196 72.388 23.756C72.388 24.476 72.12 25.032 71.584 25.424C71.056 25.808 70.272 26 69.232 26H65.368V17.6H68.992C69.928 17.6 70.652 17.788 71.164 18.164C71.684 18.54 71.944 19.072 71.944 19.76C71.944 20.224 71.828 20.62 71.596 20.948C71.372 21.268 71.06 21.508 70.66 21.668ZM66.256 18.332V21.38H68.932C69.612 21.38 70.136 21.252 70.504 20.996C70.872 20.732 71.056 20.352 71.056 19.856C71.056 19.36 70.872 18.984 70.504 18.728C70.136 18.464 69.612 18.332 68.932 18.332H66.256ZM69.22 25.268C69.972 25.268 70.54 25.14 70.924 24.884C71.308 24.628 71.5 24.228 71.5 23.684C71.5 22.636 70.74 22.112 69.22 22.112H66.256V25.268H69.22ZM76.8149 26.06C76.2069 26.06 75.6589 25.924 75.1709 25.652C74.6829 25.372 74.2989 24.988 74.0189 24.5C73.7389 24.012 73.5989 23.46 73.5989 22.844C73.5989 22.228 73.7389 21.676 74.0189 21.188C74.2989 20.7 74.6829 20.32 75.1709 20.048C75.6589 19.776 76.2069 19.64 76.8149 19.64C77.4229 19.64 77.9709 19.776 78.4589 20.048C78.9469 20.32 79.3269 20.7 79.5989 21.188C79.8789 21.676 80.0189 22.228 80.0189 22.844C80.0189 23.46 79.8789 24.012 79.5989 24.5C79.3269 24.988 78.9469 25.372 78.4589 25.652C77.9709 25.924 77.4229 26.06 76.8149 26.06ZM76.8149 25.304C77.2629 25.304 77.6629 25.204 78.0149 25.004C78.3749 24.796 78.6549 24.504 78.8549 24.128C79.0549 23.752 79.1549 23.324 79.1549 22.844C79.1549 22.364 79.0549 21.936 78.8549 21.56C78.6549 21.184 78.3749 20.896 78.0149 20.696C77.6629 20.488 77.2629 20.384 76.8149 20.384C76.3669 20.384 75.9629 20.488 75.6029 20.696C75.2509 20.896 74.9709 21.184 74.7629 21.56C74.5629 21.936 74.4629 22.364 74.4629 22.844C74.4629 23.324 74.5629 23.752 74.7629 24.128C74.9709 24.504 75.2509 24.796 75.6029 25.004C75.9629 25.204 76.3669 25.304 76.8149 25.304ZM84.3383 26.06C83.7303 26.06 83.1823 25.924 82.6943 25.652C82.2063 25.372 81.8223 24.988 81.5423 24.5C81.2623 24.012 81.1223 23.46 81.1223 22.844C81.1223 22.228 81.2623 21.676 81.5423 21.188C81.8223 20.7 82.2063 20.32 82.6943 20.048C83.1823 19.776 83.7303 19.64 84.3383 19.64C84.9463 19.64 85.4943 19.776 85.9823 20.048C86.4703 20.32 86.8503 20.7 87.1223 21.188C87.4023 21.676 87.5423 22.228 87.5423 22.844C87.5423 23.46 87.4023 24.012 87.1223 24.5C86.8503 24.988 86.4703 25.372 85.9823 25.652C85.4943 25.924 84.9463 26.06 84.3383 26.06ZM84.3383 25.304C84.7863 25.304 85.1863 25.204 85.5383 25.004C85.8983 24.796 86.1783 24.504 86.3783 24.128C86.5783 23.752 86.6783 23.324 86.6783 22.844C86.6783 22.364 86.5783 21.936 86.3783 21.56C86.1783 21.184 85.8983 20.896 85.5383 20.696C85.1863 20.488 84.7863 20.384 84.3383 20.384C83.8903 20.384 83.4863 20.488 83.1263 20.696C82.7743 20.896 82.4943 21.184 82.2863 21.56C82.0863 21.936 81.9863 22.364 81.9863 22.844C81.9863 23.324 82.0863 23.752 82.2863 24.128C82.4943 24.504 82.7743 24.796 83.1263 25.004C83.4863 25.204 83.8903 25.304 84.3383 25.304ZM91.6217 22.832L90.1338 24.2V26H89.2818V17.096H90.1338V23.132L93.9018 19.688H94.9578L92.2578 22.268L95.2098 26H94.1658L91.6217 22.832ZM97.9933 26.06C97.4813 26.06 96.9893 25.988 96.5173 25.844C96.0533 25.692 95.6893 25.504 95.4253 25.28L95.8093 24.608C96.0733 24.816 96.4053 24.988 96.8053 25.124C97.2053 25.252 97.6213 25.316 98.0533 25.316C98.6293 25.316 99.0533 25.228 99.3253 25.052C99.6053 24.868 99.7453 24.612 99.7453 24.284C99.7453 24.052 99.6693 23.872 99.5173 23.744C99.3653 23.608 99.1733 23.508 98.9413 23.444C98.7093 23.372 98.4013 23.304 98.0173 23.24C97.5053 23.144 97.0933 23.048 96.7813 22.952C96.4693 22.848 96.2013 22.676 95.9773 22.436C95.7613 22.196 95.6533 21.864 95.6533 21.44C95.6533 20.912 95.8733 20.48 96.3133 20.144C96.7533 19.808 97.3653 19.64 98.1493 19.64C98.5573 19.64 98.9653 19.696 99.3733 19.808C99.7813 19.912 100.117 20.052 100.381 20.228L100.009 20.912C99.4893 20.552 98.8693 20.372 98.1493 20.372C97.6053 20.372 97.1933 20.468 96.9133 20.66C96.6413 20.852 96.5053 21.104 96.5053 21.416C96.5053 21.656 96.5813 21.848 96.7333 21.992C96.8933 22.136 97.0893 22.244 97.3213 22.316C97.5533 22.38 97.8733 22.448 98.2813 22.52C98.7853 22.616 99.1893 22.712 99.4933 22.808C99.7973 22.904 100.057 23.068 100.273 23.3C100.489 23.532 100.597 23.852 100.597 24.26C100.597 24.812 100.365 25.252 99.9013 25.58C99.4453 25.9 98.8093 26.06 97.9933 26.06ZM105.496 25.616C105.336 25.76 105.136 25.872 104.896 25.952C104.664 26.024 104.42 26.06 104.164 26.06C103.572 26.06 103.116 25.9 102.796 25.58C102.476 25.26 102.316 24.808 102.316 24.224V20.408H101.188V19.688H102.316V18.308H103.168V19.688H105.088V20.408H103.168V24.176C103.168 24.552 103.26 24.84 103.444 25.04C103.636 25.232 103.908 25.328 104.26 25.328C104.436 25.328 104.604 25.3 104.764 25.244C104.932 25.188 105.076 25.108 105.196 25.004L105.496 25.616ZM109.405 26.06C108.797 26.06 108.249 25.924 107.761 25.652C107.273 25.372 106.889 24.988 106.609 24.5C106.329 24.012 106.189 23.46 106.189 22.844C106.189 22.228 106.329 21.676 106.609 21.188C106.889 20.7 107.273 20.32 107.761 20.048C108.249 19.776 108.797 19.64 109.405 19.64C110.013 19.64 110.561 19.776 111.049 20.048C111.537 20.32 111.917 20.7 112.189 21.188C112.469 21.676 112.609 22.228 112.609 22.844C112.609 23.46 112.469 24.012 112.189 24.5C111.917 24.988 111.537 25.372 111.049 25.652C110.561 25.924 110.013 26.06 109.405 26.06ZM109.405 25.304C109.853 25.304 110.253 25.204 110.605 25.004C110.965 24.796 111.245 24.504 111.445 24.128C111.645 23.752 111.745 23.324 111.745 22.844C111.745 22.364 111.645 21.936 111.445 21.56C111.245 21.184 110.965 20.896 110.605 20.696C110.253 20.488 109.853 20.384 109.405 20.384C108.957 20.384 108.553 20.488 108.193 20.696C107.841 20.896 107.561 21.184 107.353 21.56C107.153 21.936 107.053 22.364 107.053 22.844C107.053 23.324 107.153 23.752 107.353 24.128C107.561 24.504 107.841 24.796 108.193 25.004C108.553 25.204 108.957 25.304 109.405 25.304ZM115.164 20.924C115.364 20.5 115.66 20.18 116.052 19.964C116.452 19.748 116.944 19.64 117.528 19.64V20.468L117.324 20.456C116.66 20.456 116.14 20.66 115.764 21.068C115.388 21.476 115.2 22.048 115.2 22.784V26H114.348V19.688H115.164V20.924ZM124.508 23.108H119.228C119.276 23.764 119.528 24.296 119.984 24.704C120.44 25.104 121.016 25.304 121.712 25.304C122.104 25.304 122.464 25.236 122.792 25.1C123.12 24.956 123.404 24.748 123.644 24.476L124.124 25.028C123.844 25.364 123.492 25.62 123.068 25.796C122.652 25.972 122.192 26.06 121.688 26.06C121.04 26.06 120.464 25.924 119.96 25.652C119.464 25.372 119.076 24.988 118.796 24.5C118.516 24.012 118.376 23.46 118.376 22.844C118.376 22.228 118.508 21.676 118.772 21.188C119.044 20.7 119.412 20.32 119.876 20.048C120.348 19.776 120.876 19.64 121.46 19.64C122.044 19.64 122.568 19.776 123.032 20.048C123.496 20.32 123.86 20.7 124.124 21.188C124.388 21.668 124.52 22.22 124.52 22.844L124.508 23.108ZM121.46 20.372C120.852 20.372 120.34 20.568 119.924 20.96C119.516 21.344 119.284 21.848 119.228 22.472H123.704C123.648 21.848 123.412 21.344 122.996 20.96C122.588 20.568 122.076 20.372 121.46 20.372Z" fill="black"/>
<g clip-path="url(#clip0)">
<path d="M39.0037 14.9043C38.8339 13.6275 38.81 11.4285 39.9958 10.6901C40.017 10.6766 40.0328 10.657 40.0514 10.6402C41.0209 10.3301 41.6919 9.89492 41.1652 9.30931L26.8633 5L3.70522 8.2197C3.70522 8.2197 1.05333 8.59874 1.29023 12.7188C1.41883 14.9612 2.12213 16.0624 2.73719 16.6044L0.836863 17.1771C0.309419 17.7627 0.980256 18.1981 1.94991 18.5076C1.96834 18.5249 1.98388 18.5444 2.00544 18.5579C3.19056 19.2969 3.16775 21.4957 2.99728 22.7727C-1.26025 23.9817 0.268056 24.3756 0.268056 24.3756L1.20199 24.6016C0.545064 25.1952 -0.107347 26.3209 0.0148627 28.4559C0.251887 32.5752 2.4301 32.8595 2.4301 32.8595L17.5846 37.7852L40.4585 32.2448C40.4585 32.2448 41.9873 31.8502 37.7286 30.6412C37.5574 29.3662 37.5336 27.1676 38.7215 26.4267C38.7433 26.4136 38.7592 26.3936 38.7769 26.3771C39.7465 26.067 40.4169 25.6322 39.89 25.0466L38.8958 24.7464C39.5589 24.3465 40.5549 23.3015 40.7109 20.5871C40.8186 18.72 40.3315 17.6265 39.7677 16.9827L41.7328 16.5072C41.733 16.5079 43.2618 16.1133 39.0037 14.9043ZM19.8711 14.8515L23.7176 14.061L36.7167 11.3896L38.6534 10.9913C38.0346 12.1239 38.0605 13.6739 38.1629 14.6701C38.1854 14.8955 38.2112 15.1013 38.2363 15.2577L36.1165 15.7848L19.7094 19.8664L19.8711 14.8515ZM3.34799 18.8604L5.28442 19.2587L17.7682 21.825L18.8588 22.0484L22.1294 22.7206L22.2907 27.7356L5.42781 23.5402L3.76538 23.1271C3.78982 22.9704 3.81565 22.7648 3.83908 22.5388C3.94086 21.5433 3.96731 19.993 3.34799 18.8604ZM2.59568 12.5205C2.57224 11.4246 2.76753 10.6321 3.16223 10.2292C3.41342 9.972 3.70986 9.91848 3.91316 9.91848C4.02058 9.91848 4.09792 9.9334 4.10318 9.9334L14.0814 13.1864L19.0596 14.8095L18.8963 19.8595L4.93032 15.944L4.1933 15.7376C4.16623 15.7299 4.1295 15.7246 4.10118 15.7234C4.04364 15.7193 2.66286 15.5922 2.59568 12.5205ZM17.6207 35.5974L2.91806 31.4753C2.89086 31.4674 2.85451 31.4622 2.82619 31.4608C2.76765 31.4569 1.38624 31.3299 1.31943 28.259C1.29562 27.1617 1.49191 26.3699 1.88586 25.9667C2.13768 25.7095 2.43424 25.656 2.63717 25.656C2.74484 25.656 2.82192 25.6704 2.82756 25.6704C2.82756 25.6704 2.82819 25.6704 2.82756 25.6704L17.783 30.5473L17.6207 35.5974ZM36.8866 30.4073C36.9098 30.6334 36.9356 30.8388 36.9607 30.9955L18.4334 35.6045L18.5954 30.5895L22.5563 29.7752L23.1413 29.9167L25.3338 29.2041L35.4404 27.1273L37.3778 26.7287C36.7584 27.8612 36.784 29.4118 36.8866 30.4073ZM37.9071 23.5917C37.8734 23.5925 37.8397 23.597 37.808 23.607L36.4106 23.9982L23.1057 27.7289L22.943 22.679L27.3082 21.2552L37.878 17.8081C37.8794 17.8075 38.4341 17.6843 38.8412 18.0983C39.2353 18.5011 39.4308 19.2937 39.4077 20.3896C39.3388 23.4602 37.9574 23.5878 37.9071 23.5917Z" fill="#5D5FEF"/>
</g>
<defs>
<clipPath id="clip0">
<rect width="42" height="42" fill="white"/>
</clipPath>
</defs>
</svg>
