<svg width="33" height="28" viewBox="0 0 33 28" fill="none" xmlns="http://www.w3.org/2000/svg">
<path fill-rule="evenodd" clip-rule="evenodd" d="M16.0713 7.68994L16.1406 8.83374L14.9846 8.69368C10.7764 8.15679 7.10003 6.33605 3.97859 3.27813L2.45255 1.76084L2.05948 2.8813C1.2271 5.37899 1.7589 8.01674 3.49303 9.7908C4.4179 10.7712 4.20981 10.9113 2.61441 10.3277C2.05948 10.1409 1.57393 10.0009 1.52768 10.0709C1.36583 10.2343 1.92075 12.3585 2.36007 13.1989C2.96123 14.366 4.18669 15.5098 5.52775 16.1867L6.66071 16.7236L5.31965 16.747C4.02483 16.747 3.97859 16.7703 4.11732 17.2605C4.57976 18.7778 6.40638 20.3885 8.44109 21.0888L9.87464 21.579L8.62606 22.3259C6.77632 23.3997 4.60288 24.0066 2.42943 24.0533C1.38895 24.0766 0.533447 24.17 0.533447 24.24C0.533447 24.4735 3.3543 25.7807 4.99595 26.2942C9.92088 27.8115 15.7707 27.1579 20.1638 24.5668C23.2853 22.7228 26.4067 19.0579 27.8634 15.5098C28.6495 13.619 29.4357 10.1643 29.4357 8.50694C29.4357 7.43317 29.505 7.29311 30.7998 6.00925C31.5629 5.26228 32.2796 4.44528 32.4184 4.21185C32.6496 3.76833 32.6265 3.76833 31.4472 4.16516C29.4819 4.86545 29.2044 4.77208 30.1756 3.72165C30.8923 2.97467 31.7478 1.62079 31.7478 1.22396C31.7478 1.15393 31.401 1.27064 31.0079 1.48073C30.5917 1.71416 29.6669 2.0643 28.9732 2.27439L27.7246 2.67122L26.5917 1.9009C25.9674 1.48073 25.0888 1.01387 24.6263 0.873815C23.4471 0.547015 21.6436 0.593701 20.58 0.967187C17.6898 2.01762 15.8632 4.72539 16.0713 7.68994Z" fill="white"/>
</svg>
