<svg width="32" height="33" viewBox="0 0 32 33" fill="none" xmlns="http://www.w3.org/2000/svg">
<path fill-rule="evenodd" clip-rule="evenodd" d="M16.0015 0.655273C11.6561 0.655273 11.1108 0.674274 9.4041 0.751941C7.70075 0.829942 6.53807 1.09961 5.52072 1.49528C4.46838 1.90395 3.5757 2.45063 2.68636 3.3403C1.79635 4.22964 1.24968 5.12232 0.839675 6.17433C0.443005 7.19201 0.173002 8.35502 0.0963343 10.0577C0.0200002 11.7644 0 12.3101 0 16.6554C0 21.0008 0.0193335 21.5445 0.0966677 23.2512C0.175002 24.9545 0.444671 26.1172 0.840009 27.1346C1.24901 28.1869 1.79569 29.0796 2.68536 29.9689C3.57437 30.8589 4.46705 31.4069 5.51872 31.8156C6.53673 32.2113 7.69975 32.4809 9.40276 32.5589C11.1094 32.6366 11.6545 32.6556 15.9995 32.6556C20.3452 32.6556 20.8889 32.6366 22.5956 32.5589C24.2989 32.4809 25.4629 32.2113 26.4809 31.8156C27.533 31.4069 28.4243 30.8589 29.3133 29.9689C30.2033 29.0796 30.75 28.1869 31.16 27.1349C31.5533 26.1172 31.8233 24.9542 31.9033 23.2515C31.98 21.5448 32 21.0008 32 16.6554C32 12.3101 31.98 11.7647 31.9033 10.058C31.8233 8.35469 31.5533 7.19201 31.16 6.17466C30.75 5.12232 30.2033 4.22964 29.3133 3.3403C28.4233 2.45029 27.5333 1.90362 26.4799 1.49528C25.4599 1.09961 24.2966 0.829942 22.5932 0.751941C20.8866 0.674274 20.3432 0.655273 15.9965 0.655273H16.0015ZM14.5665 3.5387C14.9925 3.53803 15.4678 3.5387 16.0018 3.5387C20.2739 3.5387 20.7802 3.55403 22.4672 3.6307C24.0273 3.70203 24.8739 3.9627 25.4379 4.1817C26.1846 4.47171 26.717 4.81838 27.2766 5.37838C27.8366 5.93839 28.1833 6.47173 28.474 7.2184C28.693 7.78174 28.954 8.62842 29.025 10.1884C29.1016 11.8751 29.1183 12.3818 29.1183 16.6518C29.1183 20.9219 29.1016 21.4286 29.025 23.1152C28.9536 24.6753 28.693 25.5219 28.474 26.0853C28.184 26.8319 27.8366 27.3636 27.2766 27.9233C26.7166 28.4833 26.1849 28.83 25.4379 29.12C24.8746 29.34 24.0273 29.6 22.4672 29.6713C20.7806 29.748 20.2739 29.7646 16.0018 29.7646C11.7295 29.7646 11.2231 29.748 9.53644 29.6713C7.97643 29.5993 7.12975 29.3386 6.56541 29.1196C5.81874 28.8296 5.2854 28.483 4.72539 27.923C4.16539 27.3629 3.81872 26.8309 3.52805 26.0839C3.30904 25.5206 3.04804 24.6739 2.97704 23.1139C2.90037 21.4272 2.88504 20.9205 2.88504 16.6478C2.88504 12.3751 2.90037 11.8711 2.97704 10.1844C3.04837 8.62442 3.30904 7.77774 3.52805 7.21374C3.81805 6.46706 4.16539 5.93372 4.72539 5.37372C5.2854 4.81371 5.81874 4.46704 6.56541 4.17637C7.12942 3.95637 7.97643 3.69637 9.53644 3.6247C11.0125 3.55803 11.5845 3.53803 14.5665 3.5347V3.5387ZM24.5427 6.19555C23.4827 6.19555 22.6227 7.05456 22.6227 8.1149C22.6227 9.17491 23.4827 10.0349 24.5427 10.0349C25.6027 10.0349 26.4627 9.17491 26.4627 8.1149C26.4627 7.05489 25.6027 6.19488 24.5427 6.19488V6.19555ZM16.0017 8.43856C11.464 8.43856 7.78493 12.1176 7.78493 16.6553C7.78493 21.193 11.464 24.8704 16.0017 24.8704C20.5394 24.8704 24.2171 21.193 24.2171 16.6553C24.2171 12.1176 20.5391 8.43856 16.0013 8.43856H16.0017ZM16.0016 11.3219C18.947 11.3219 21.335 13.7096 21.335 16.6553C21.335 19.6006 18.947 21.9887 16.0016 21.9887C13.0559 21.9887 10.6682 19.6006 10.6682 16.6553C10.6682 13.7096 13.0559 11.3219 16.0016 11.3219V11.3219Z" fill="white"/>
</svg>
