<svg width="32" height="32" viewBox="0 0 32 32" fill="none" xmlns="http://www.w3.org/2000/svg">
<g clip-path="url(#clip0)">
<path d="M16.102 3.99805H16.28C17.924 4.00405 26.254 4.06405 28.5 4.66805C29.179 4.85238 29.7977 5.21169 30.2943 5.71006C30.7909 6.20843 31.1481 6.82841 31.33 7.50805C31.532 8.26805 31.674 9.27405 31.77 10.312L31.79 10.52L31.834 11.04L31.85 11.248C31.98 13.076 31.996 14.788 31.998 15.162V15.312C31.996 15.7 31.978 17.528 31.834 19.432L31.818 19.642L31.8 19.85C31.7 20.994 31.552 22.13 31.33 22.966C31.1486 23.646 30.7917 24.2662 30.295 24.7647C29.7983 25.2631 29.1793 25.6223 28.5 25.806C26.18 26.43 17.362 26.474 16.14 26.476H15.856C15.238 26.476 12.682 26.464 10.002 26.372L9.662 26.36L9.488 26.352L9.146 26.338L8.804 26.324C6.584 26.226 4.47 26.068 3.496 25.804C2.81698 25.6204 2.19813 25.2616 1.70145 24.7635C1.20477 24.2654 0.847694 23.6456 0.666 22.966C0.444 22.132 0.296 20.994 0.196 19.85L0.18 19.64L0.164 19.432C0.0652952 18.0768 0.0105997 16.7188 0 15.36L0 15.114C0.004 14.684 0.02 13.198 0.128 11.558L0.142 11.352L0.148 11.248L0.164 11.04L0.208 10.52L0.228 10.312C0.324 9.27405 0.466 8.26605 0.668 7.50805C0.849387 6.82814 1.20632 6.20787 1.70303 5.70941C2.19973 5.21095 2.81874 4.85183 3.498 4.66805C4.472 4.40805 6.586 4.24805 8.806 4.14805L9.146 4.13405L9.49 4.12205L9.662 4.11605L10.004 4.10205C11.9074 4.0408 13.8116 4.00679 15.716 4.00005H16.102V3.99805ZM12.8 10.418V20.054L21.114 15.238L12.8 10.418Z" fill="white"/>
</g>
<defs>
<clipPath id="clip0">
<rect width="32" height="32" fill="white"/>
</clipPath>
</defs>
</svg>
