<svg width="14" height="14" viewBox="0 0 14 14" fill="none" xmlns="http://www.w3.org/2000/svg">
<path d="M13.8789 13.248L9.69234 8.96875C10.527 7.95703 10.9443 6.79036 10.9443 5.46875C10.9443 4.47526 10.7042 3.55924 10.2241 2.7207C9.74394 1.88216 9.08882 1.21908 8.25869 0.731445C7.42856 0.243815 6.52664 0 5.55292 0C4.5792 0 3.67952 0.243815 2.85388 0.731445C2.02824 1.21908 1.37535 1.88216 0.895226 2.7207C0.415098 3.55924 0.175034 4.47526 0.175034 5.46875C0.175034 6.46224 0.415098 7.37826 0.895226 8.2168C1.37535 9.05534 2.02824 9.71842 2.85388 10.2061C3.67952 10.6937 4.58144 10.9375 5.55965 10.9375C6.89683 10.9375 8.07247 10.4909 9.08657 9.59766L13.2596 13.8633C13.3494 13.9544 13.4526 14 13.5693 14C13.6859 14 13.7869 13.9567 13.8721 13.8701C13.9574 13.7835 14 13.6787 14 13.5557C14 13.4326 13.9596 13.3301 13.8789 13.248ZM5.55965 10.0762C4.73401 10.0762 3.97343 9.86882 3.27792 9.4541C2.58241 9.03939 2.03273 8.47884 1.62888 7.77246C1.22503 7.06608 1.02311 6.29818 1.02311 5.46875C1.02311 4.63932 1.22503 3.87142 1.62888 3.16504C2.03273 2.45866 2.58241 1.89811 3.27792 1.4834C3.97343 1.06868 4.73176 0.861328 5.55292 0.861328C6.37407 0.861328 7.13241 1.06868 7.82792 1.4834C8.52343 1.89811 9.07311 2.45866 9.47696 3.16504C9.8808 3.87142 10.0827 4.63932 10.0827 5.46875C10.0827 5.82422 10.0423 6.17513 9.96157 6.52148C9.8808 6.86784 9.76638 7.19141 9.6183 7.49219C9.47023 7.79297 9.29298 8.0778 9.08657 8.34668C8.88016 8.61556 8.64683 8.85482 8.38657 9.06445C8.12632 9.27409 7.84811 9.4541 7.55196 9.60449C7.2558 9.75488 6.93721 9.87109 6.59619 9.95312C6.25516 10.0352 5.90965 10.0762 5.55965 10.0762Z" fill="#241400"/>
</svg>
