<svg width="38" height="37" viewBox="0 0 38 37" fill="none" xmlns="http://www.w3.org/2000/svg">
<path d="M11.875 6.94312V9.25556H34.4375V13.8331L31.8027 21.974H11.1278L8.15902 1.15918H1.1875V3.47163H6.09098L9.05973 24.2865H33.5445L36.8125 14.1888V6.94312H11.875Z" fill="#6C63FF"/>
<path d="M13.1356 26.618C11.8763 26.6194 10.6689 27.1072 9.77845 27.9742C8.88796 28.8412 8.38705 30.0168 8.38562 31.2429C8.38562 32.4695 8.88607 33.6459 9.77686 34.5132C10.6677 35.3806 11.8758 35.8678 13.1356 35.8678C14.3954 35.8678 15.6036 35.3806 16.4944 34.5132C17.3852 33.6459 17.8856 32.4695 17.8856 31.2429C17.8842 30.0168 17.3833 28.8412 16.4928 27.9742C15.6023 27.1071 14.395 26.6194 13.1356 26.618V26.618ZM13.1356 33.5554C12.6659 33.5554 12.2067 33.4198 11.8161 33.1657C11.4256 32.9116 11.1212 32.5504 10.9414 32.1279C10.7616 31.7053 10.7146 31.2404 10.8063 30.7918C10.8979 30.3432 11.1241 29.9312 11.4562 29.6078C11.7884 29.2844 12.2116 29.0641 12.6723 28.9749C13.133 28.8857 13.6105 28.9315 14.0445 29.1065C14.4785 29.2815 14.8494 29.5779 15.1104 29.9582C15.3713 30.3385 15.5106 30.7856 15.5106 31.2429C15.5099 31.856 15.2594 32.4438 14.8142 32.8773C14.3689 33.3108 13.7653 33.5547 13.1356 33.5554V33.5554Z" fill="#6C63FF"/>
<path d="M29.7606 26.618C28.5013 26.6194 27.2939 27.1072 26.4034 27.9742C25.513 28.8412 25.0121 30.0168 25.0106 31.2429C25.0106 32.4695 25.5111 33.6459 26.4019 34.5132C27.2927 35.3806 28.5008 35.8678 29.7606 35.8678C31.0204 35.8678 32.2286 35.3806 33.1194 34.5132C34.0102 33.6459 34.5106 32.4695 34.5106 31.2429C34.5092 30.0168 34.0083 28.8412 33.1178 27.9742C32.2273 27.1071 31.02 26.6194 29.7606 26.618V26.618ZM29.7606 33.5554C29.2909 33.5554 28.8317 33.4198 28.4411 33.1657C28.0506 32.9116 27.7462 32.5504 27.5664 32.1279C27.3866 31.7053 27.3396 31.2404 27.4313 30.7918C27.5229 30.3432 27.7491 29.9312 28.0812 29.6078C28.4134 29.2844 28.8366 29.0641 29.2973 28.9749C29.758 28.8857 30.2355 28.9315 30.6695 29.1065C31.1035 29.2815 31.4744 29.5779 31.7354 29.9582C31.9963 30.3385 32.1356 30.7856 32.1356 31.2429C32.1349 31.856 31.8844 32.4438 31.4392 32.8773C30.9939 33.3108 30.3903 33.5547 29.7606 33.5554V33.5554Z" fill="#6C63FF"/>
</svg>
