<svg width="38" height="37" viewBox="0 0 38 37" fill="none" xmlns="http://www.w3.org/2000/svg">
<path d="M10.1875 6.94435V9.25685H29.1875V13.8345L26.9688 21.9756H9.55825L7.05825 1.16028H1.1875V3.47278H5.31675L7.81675 24.2881H28.4355L31.1875 14.1902V6.94435H10.1875Z" fill="#5D5FEF"/>
<path d="M13.1356 26.6187C11.8763 26.62 10.6689 27.1078 9.77842 27.9748C8.88793 28.8419 8.38702 30.0175 8.38559 31.2437C8.38559 32.4703 8.88604 33.6467 9.77683 34.514C10.6676 35.3814 11.8758 35.8687 13.1356 35.8687C14.3954 35.8687 15.6035 35.3814 16.4943 34.514C17.3851 33.6467 17.8856 32.4703 17.8856 31.2437C17.8842 30.0174 17.3833 28.8419 16.4928 27.9748C15.6023 27.1077 14.3949 26.62 13.1356 26.6187V26.6187ZM13.1356 33.5562C12.6659 33.5562 12.2067 33.4205 11.8161 33.1664C11.4255 32.9123 11.1211 32.5512 10.9414 32.1286C10.7616 31.7061 10.7146 31.2411 10.8062 30.7925C10.8979 30.3439 11.1241 29.9319 11.4562 29.6085C11.7884 29.2851 12.2115 29.0648 12.6723 28.9756C13.133 28.8864 13.6105 28.9322 14.0445 29.1072C14.4784 29.2822 14.8494 29.5786 15.1103 29.9589C15.3713 30.3392 15.5106 30.7863 15.5106 31.2437C15.5098 31.8567 15.2594 32.4445 14.8141 32.878C14.3689 33.3116 13.7652 33.5554 13.1356 33.5562V33.5562Z" fill="#5D5FEF"/>
<path d="M29.7606 26.6187C28.5013 26.62 27.2939 27.1078 26.4034 27.9748C25.513 28.8419 25.0121 30.0175 25.0106 31.2437C25.0106 32.4703 25.5111 33.6467 26.4019 34.514C27.2927 35.3814 28.5008 35.8687 29.7606 35.8687C31.0204 35.8687 32.2286 35.3814 33.1194 34.514C34.0102 33.6467 34.5106 32.4703 34.5106 31.2437C34.5092 30.0174 34.0083 28.8419 33.1178 27.9748C32.2273 27.1077 31.02 26.62 29.7606 26.6187V26.6187ZM29.7606 33.5562C29.2909 33.5562 28.8317 33.4205 28.4411 33.1664C28.0506 32.9123 27.7462 32.5512 27.5664 32.1286C27.3866 31.7061 27.3396 31.2411 27.4313 30.7925C27.5229 30.3439 27.7491 29.9319 28.0812 29.6085C28.4134 29.2851 28.8366 29.0648 29.2973 28.9756C29.758 28.8864 30.2355 28.9322 30.6695 29.1072C31.1035 29.2822 31.4744 29.5786 31.7354 29.9589C31.9963 30.3392 32.1356 30.7863 32.1356 31.2437C32.1349 31.8567 31.8844 32.4445 31.4392 32.878C30.9939 33.3116 30.3903 33.5554 29.7606 33.5562V33.5562Z" fill="#5D5FEF"/>
</svg>
