<svg width="37" height="38" viewBox="0 0 37 38" fill="none" xmlns="http://www.w3.org/2000/svg">
<path d="M18.5 9.5C17.3566 9.5 16.2388 9.84823 15.2881 10.5006C14.3374 11.1531 13.5964 12.0804 13.1588 13.1653C12.7213 14.2503 12.6068 15.4441 12.8298 16.5958C13.0529 17.7476 13.6035 18.8056 14.412 19.6359C15.2206 20.4663 16.2507 21.0318 17.3721 21.2609C18.4936 21.49 19.656 21.3724 20.7124 20.923C21.7688 20.4736 22.6717 19.7126 23.3069 18.7362C23.9422 17.7598 24.2813 16.6118 24.2813 15.4375C24.2813 13.8628 23.6722 12.3526 22.588 11.2391C21.5038 10.1256 20.0333 9.5 18.5 9.5ZM18.5 19C17.8139 19 17.1433 18.7911 16.5729 18.3996C16.0024 18.0082 15.5578 17.4518 15.2953 16.8008C15.0328 16.1498 14.9641 15.4335 15.0979 14.7425C15.2317 14.0514 15.5621 13.4167 16.0472 12.9184C16.5323 12.4202 17.1504 12.0809 17.8233 11.9435C18.4962 11.806 19.1936 11.8765 19.8274 12.1462C20.4613 12.4158 21.003 12.8724 21.3842 13.4583C21.7653 14.0441 21.9688 14.7329 21.9688 15.4375C21.9678 16.382 21.6021 17.2876 20.9518 17.9555C20.3014 18.6234 19.4197 18.9991 18.5 19Z" fill="#6C63FF"/>
<path d="M18.5 2.375C15.2984 2.375 12.1687 3.35004 9.50671 5.17682C6.84468 7.0036 4.76989 9.60007 3.5447 12.6379C2.31951 15.6757 1.99894 19.0184 2.62354 22.2434C3.24814 25.4683 4.78985 28.4306 7.05371 30.7556C9.31757 33.0807 12.2019 34.6641 15.342 35.3056C18.482 35.947 21.7368 35.6178 24.6947 34.3595C27.6526 33.1012 30.1807 30.9703 31.9594 28.2364C33.7381 25.5024 34.6875 22.2881 34.6875 19C34.6826 14.5923 32.9756 10.3666 29.9409 7.2499C26.9062 4.1332 22.7917 2.38003 18.5 2.375V2.375ZM11.5625 31.3227V29.6875C11.5634 28.743 11.9292 27.8374 12.5795 27.1695C13.2298 26.5016 14.1116 26.1259 15.0312 26.125H21.9687C22.8884 26.1259 23.7702 26.5016 24.4205 27.1695C25.0708 27.8374 25.4366 28.743 25.4375 29.6875V31.3227C23.3322 32.5852 20.938 33.2506 18.5 33.2506C16.062 33.2506 13.6678 32.5852 11.5625 31.3227V31.3227ZM27.7407 29.5996C27.7177 28.042 27.0998 26.556 26.0201 25.4619C24.9405 24.3677 23.4855 23.7529 21.9687 23.75H15.0312C13.5145 23.7529 12.0595 24.3677 10.9799 25.4619C9.9002 26.556 9.28229 28.042 9.25925 29.5996C7.16246 27.6768 5.68381 25.1452 5.01909 22.34C4.35437 19.5349 4.53493 16.5886 5.53686 13.8912C6.5388 11.1938 8.31485 8.8726 10.6298 7.23492C12.9448 5.59724 15.6895 4.72034 18.5006 4.72034C21.3116 4.72034 24.0563 5.59724 26.3713 7.23492C28.6863 8.8726 30.4624 11.1938 31.4643 13.8912C32.4662 16.5886 32.6468 19.5349 31.9821 22.34C31.3173 25.1452 29.8387 27.6768 27.7419 29.5996H27.7407Z" fill="#6C63FF"/>
</svg>
