<svg width="38" height="38" viewBox="0 0 38 38" fill="none" xmlns="http://www.w3.org/2000/svg">
<path d="M19 7.35484C14.9395 7.35484 11.6452 10.6492 11.6452 14.7097C11.6452 18.7702 14.9395 22.0645 19 22.0645C23.0605 22.0645 26.3548 18.7702 26.3548 14.7097C26.3548 10.6492 23.0605 7.35484 19 7.35484ZM19 18.3871C16.9698 18.3871 15.3226 16.7399 15.3226 14.7097C15.3226 12.6794 16.9698 11.0323 19 11.0323C21.0302 11.0323 22.6774 12.6794 22.6774 14.7097C22.6774 16.7399 21.0302 18.3871 19 18.3871ZM19 0C8.50403 0 0 8.50403 0 19C0 29.496 8.50403 38 19 38C29.496 38 38 29.496 38 19C38 8.50403 29.496 0 19 0ZM19 34.3226C15.1923 34.3226 11.7141 32.9206 9.03266 30.6145C10.1742 28.8524 12.1278 27.6573 14.3649 27.5883C15.9585 28.0786 17.4754 28.3238 19 28.3238C20.5246 28.3238 22.0415 28.0863 23.6351 27.5883C25.8722 27.6649 27.8258 28.8524 28.9673 30.6145C26.2859 32.9206 22.8077 34.3226 19 34.3226V34.3226ZM31.4649 27.8794C29.5956 25.4738 26.7073 23.9032 23.4129 23.9032C22.6315 23.9032 21.421 24.6387 19 24.6387C16.5867 24.6387 15.3685 23.9032 14.5871 23.9032C11.3004 23.9032 8.4121 25.4738 6.53508 27.8794C4.74234 25.3742 3.67742 22.3097 3.67742 19C3.67742 10.5496 10.5496 3.67742 19 3.67742C27.4504 3.67742 34.3226 10.5496 34.3226 19C34.3226 22.3097 33.2577 25.3742 31.4649 27.8794Z" fill="#6C63FF"/>
</svg>
