<svg width="600" height="400" viewBox="0 0 600 400" fill="none" xmlns="http://www.w3.org/2000/svg">
<g clip-path="url(#clip0)">
<path d="M69.922 346.529C69.922 346.529 -6.39439 312.746 20.4155 289.319C47.2253 265.892 69.922 346.529 69.922 346.529Z" fill="#E6E6E6"/>
<path d="M68.5936 354.412C68.5936 354.412 33.5158 243.585 85.1692 248.885C136.823 254.185 68.5936 354.412 68.5936 354.412Z" fill="#E6E6E6"/>
<path d="M43.018 344.583L44.4903 363.122L44.5136 363.442C44.5122 366.337 44.6643 369.231 44.9693 372.111C46.9674 391.021 55.5556 399.638 65.5927 399.638C75.6298 399.638 83.844 391.021 85.8421 372.111C86.1471 369.231 86.2992 366.337 86.2978 363.442L86.3095 363.184L86.3153 363.122L87.7935 344.583H43.018Z" fill="#E6E6E6"/>
<path d="M86.3153 363.122L86.3095 363.184L86.2978 363.442C86.2992 366.337 86.1471 369.231 85.8421 372.111H44.9694C44.6644 369.231 44.5123 366.337 44.5136 363.442L44.4903 363.122H86.3153Z" fill="white"/>
<path d="M567.676 357.867C567.676 357.867 508.591 331.712 529.348 313.574C550.104 295.437 567.676 357.867 567.676 357.867Z" fill="#E6E6E6"/>
<path d="M566.648 363.97C566.648 363.97 539.49 278.166 579.481 282.269C619.472 286.373 566.648 363.97 566.648 363.97Z" fill="#E6E6E6"/>
<path d="M546.847 356.36L547.987 370.713L548.005 370.961C548.004 373.203 548.121 375.443 548.358 377.673C549.905 392.313 556.554 398.985 564.325 398.985C572.095 398.985 578.455 392.313 580.002 377.673C580.238 375.443 580.356 373.203 580.355 370.961L580.364 370.761L580.368 370.713L581.513 356.36H546.847Z" fill="#E6E6E6"/>
<path d="M580.368 370.714L580.364 370.761L580.355 370.961C580.356 373.203 580.238 375.443 580.002 377.673H548.358C548.121 375.443 548.004 373.203 548.005 370.961L547.987 370.714H580.368Z" fill="white"/>
<path d="M198.912 119.309V94.0948H194.835V119.309C193.665 119.764 192.697 120.596 192.095 121.662C191.493 122.728 191.296 123.963 191.537 125.154C191.778 126.344 192.442 127.417 193.416 128.189C194.39 128.961 195.612 129.383 196.873 129.383C198.135 129.383 199.357 128.961 200.331 128.189C201.304 127.417 201.969 126.344 202.21 125.154C202.451 123.963 202.253 122.728 201.652 121.662C201.05 120.596 200.082 119.764 198.912 119.309Z" fill="#E6E6E6"/>
<path d="M208.426 373.766H180.565V48.3542H169.692V373.766H141.831C138.529 373.766 135.259 374.391 132.209 375.606C129.158 376.821 126.387 378.602 124.052 380.847C121.717 383.092 119.865 385.757 118.602 388.691C117.338 391.624 116.688 394.768 116.688 397.943V397.943H233.569V397.943C233.569 394.768 232.918 391.624 231.655 388.691C230.391 385.757 228.539 383.092 226.204 380.847C223.87 378.602 221.098 376.821 218.047 375.606C214.997 374.391 211.727 373.766 208.426 373.766Z" fill="#E6E6E6"/>
<path d="M116.744 96.7086H233.512L226.372 10.8861C226.111 7.92673 224.707 5.16844 222.438 3.15384C220.169 1.13924 217.197 0.0141754 214.109 0H136.148C133.059 0.0141747 130.088 1.13923 127.818 3.15383C125.549 5.16842 124.146 7.9267 123.885 10.886L116.744 96.7086Z" fill="#6C63FF"/>
<path d="M279.328 247.339C278.23 247.163 277.106 247.199 276.022 247.444C274.938 247.69 273.916 248.14 273.015 248.769C272.113 249.397 271.351 250.192 270.771 251.106C270.192 252.02 269.807 253.036 269.639 254.095L266.352 274.84L277.537 277.693L285.733 258.364C286.209 257.241 286.416 256.029 286.339 254.818C286.262 253.608 285.903 252.429 285.288 251.37C284.672 250.311 283.817 249.399 282.786 248.701C281.754 248.003 280.572 247.538 279.328 247.339Z" fill="#A0616A"/>
<path d="M279.119 274.802C285.326 298.523 282.655 320.219 259.54 337.255C231.815 329.906 213.375 312.175 202.125 286.406C201.425 284.803 201.071 283.081 201.082 281.344C201.094 279.606 201.472 277.889 202.193 276.295C202.914 274.702 203.963 273.266 205.277 272.073C206.592 270.88 208.144 269.956 209.84 269.356C212.388 268.455 215.161 268.321 217.79 268.973C220.419 269.625 222.78 271.03 224.557 273.004L251.76 303.195L264.522 272.752L279.119 274.802Z" fill="#6C63FF"/>
<path d="M421.17 399.254C395.855 397.961 380.129 389.603 376.321 372.463L380.398 365.276L427.079 385.724C428.257 386.241 429.249 387.082 429.929 388.142C430.609 389.202 430.946 390.432 430.896 391.677C430.847 392.921 430.414 394.123 429.653 395.131C428.891 396.138 427.835 396.904 426.62 397.333L421.17 399.254Z" fill="#E6E6E6"/>
<path d="M401.61 399.426C388.456 399.043 375.807 399.162 363.821 399.942C361.719 400.08 359.645 399.416 358.048 398.093C356.452 396.77 355.463 394.895 355.295 392.875L354.575 384.225L344.382 368.543L353.216 360.048C368.062 374.266 384.344 386.209 403.681 393.308C404.302 393.717 404.769 394.309 405.012 394.995C405.254 395.681 405.259 396.423 405.026 397.112C404.793 397.801 404.334 398.399 403.718 398.816C403.102 399.233 402.363 399.447 401.61 399.426Z" fill="#E6E6E6"/>
<path d="M330.112 337.831C313.316 366.73 296.797 386.212 275.069 396.641C248.337 405.125 228.799 393.884 213.571 370.83L257.741 342.732L264.197 348.94L322.704 306.128C324.133 304.827 326.038 304.12 328.006 304.162C329.973 304.204 331.844 304.991 333.212 306.352L383.116 365.276L377 375.077L330.112 337.831Z" fill="#2F2E41"/>
<path d="M345.062 371.81L321.958 337.831L327.394 328.03L357.973 358.741L345.062 371.81Z" fill="#2F2E41"/>
<path d="M211.872 263.34C224.632 263.34 234.977 253.393 234.977 241.123C234.977 228.853 224.632 218.906 211.872 218.906C199.112 218.906 188.768 228.853 188.768 241.123C188.768 253.393 199.112 263.34 211.872 263.34Z" fill="#A0616A"/>
<path d="M217.988 282.289L192.166 273.795C195.987 267.956 197.662 261.053 196.922 254.191H217.988C216.79 264.161 216.611 273.618 217.988 282.289Z" fill="#A0616A"/>
<path d="M273.031 341.752C269.159 343.28 268.876 348.236 265.216 349.92C247.521 358.061 228.8 364.667 215.949 376.384C185.919 356.774 158.083 295.869 194.204 269.22C206.534 276.158 217.547 281.123 217.309 269.22L273.031 341.752Z" fill="#6C63FF"/>
<path opacity="0.2" d="M257.401 315.615L244.83 311.367L220.027 329.99L208.908 291.501C208.137 288.831 206.887 290.184 205.093 292.039C203.223 290.374 200.897 289.258 198.389 288.823C195.881 288.388 193.296 288.652 190.939 289.583C188.582 290.514 186.55 292.074 185.085 294.078C183.619 296.083 182.78 298.449 182.667 300.897C181.344 328.816 190.1 352.436 211.872 370.503C240.35 364.64 252.435 346.139 257.401 322.149L256.055 321.286C256.551 319.432 257 317.542 257.401 315.615Z" fill="black"/>
<path d="M214.981 211.897C222.602 213.571 231.276 215.944 231.763 218.149C239.602 220.048 245.52 224.598 246.728 231.535C246.829 232.135 246.792 232.748 246.62 233.333C246.447 233.917 246.144 234.458 245.731 234.917C245.317 235.377 244.804 235.743 244.228 235.991C243.651 236.24 243.025 236.363 242.394 236.353C238.13 236.3 231.73 235.908 227.504 234.21C215.227 241.817 213.166 261.601 218.527 275.068L210.09 274.325L201.362 249.754L199.132 273.359L179.879 270.911L182.359 240.811C183.121 233.716 185.632 226.899 189.683 220.924C190.104 220.325 190.564 219.751 191.061 219.208C193.99 216.026 197.76 213.666 201.972 212.379C206.184 211.092 210.679 210.925 214.981 211.897Z" fill="#2F2E41"/>
<path d="M258.419 286.485L279.564 310.39L311.282 274.394L289.851 249.39L258.419 286.485Z" fill="#3F3D56"/>
<path d="M305.853 275.219L280.707 255.435C282.135 252.138 288.993 253.237 288.993 253.237L308.677 272.426C309.363 273.094 309.951 273.849 310.425 274.669L305.853 275.219Z" fill="#F2F2F2"/>
<path d="M306.996 273.845L278.421 252.413L246.703 298.575L276.563 317.946C279.421 319.045 282.278 317.122 282.278 317.122L311.425 274.257L306.996 273.845Z" fill="#3F3D56"/>
<path d="M281.984 259.102L281.714 259.464L300.003 272.102L300.274 271.74L281.984 259.102Z" fill="#6C63FF"/>
<path d="M300.516 276.47L276.513 311.366L276.899 311.612L300.902 276.716L300.516 276.47Z" fill="#6C63FF"/>
<path d="M254.557 298.667L254.283 299.026L273.709 312.77L273.984 312.411L254.557 298.667Z" fill="#6C63FF"/>
<path d="M278.516 259.705L253.656 294.051L254.036 294.305L278.896 259.959L278.516 259.705Z" fill="#6C63FF"/>
<path d="M286.195 252.965L286.002 253.167L308.614 273.122L308.807 272.92L286.195 252.965Z" fill="#B3B3B3"/>
<path d="M284.312 253.136L284.123 253.342L307.754 273.403L307.944 273.197L284.312 253.136Z" fill="#B3B3B3"/>
<path d="M282.834 253.536L282.651 253.747L307.182 273.41L307.365 273.199L282.834 253.536Z" fill="#B3B3B3"/>
<path d="M269.832 293.503C268.918 292.891 267.887 292.46 266.798 292.235C265.71 292.01 264.586 291.996 263.491 292.192C262.396 292.388 261.353 292.792 260.422 293.379C259.491 293.966 258.691 294.725 258.067 295.613L245.849 313.001L254.683 320.188L270.704 306.103C271.635 305.285 272.363 304.276 272.833 303.15C273.303 302.024 273.503 300.812 273.419 299.601C273.336 298.391 272.97 297.215 272.349 296.159C271.728 295.103 270.868 294.195 269.832 293.503Z" fill="#A0616A"/>
<path d="M257.401 318.228C252.435 342.218 240.35 360.719 211.872 366.583C190.1 348.515 181.344 324.895 182.667 296.976C182.749 295.24 183.196 293.539 183.981 291.973C184.767 290.408 185.873 289.012 187.235 287.87C188.597 286.728 190.185 285.862 191.904 285.327C193.623 284.791 195.437 284.595 197.237 284.752C199.941 284.989 202.506 286.011 204.591 287.683C206.675 289.356 208.181 291.599 208.908 294.114L220.027 332.604L245.127 310.36L257.401 318.228Z" fill="#6C63FF"/>
<path d="M599.732 400H0V398.574H600L599.732 400Z" fill="#3F3D56"/>
<path d="M313.463 59.7939C313.103 59.7943 312.758 59.9321 312.503 60.1771C312.248 60.4221 312.105 60.7543 312.104 61.1008V163.037C312.105 163.383 312.248 163.716 312.503 163.961C312.758 164.206 313.103 164.343 313.463 164.344H401.803C402.164 164.343 402.509 164.206 402.764 163.961C403.019 163.716 403.162 163.383 403.163 163.037V61.1008C403.162 60.7543 403.019 60.4221 402.764 60.1771C402.509 59.9321 402.164 59.7943 401.803 59.7939H313.463Z" fill="#E6E6E6"/>
<path d="M322.637 154.216H392.63V69.9222H322.637V154.216Z" fill="white"/>
<path d="M460.538 86.5848C460.323 86.5851 460.117 86.6674 459.965 86.8136C459.812 86.9599 459.727 87.1582 459.727 87.365V138.08C459.727 138.286 459.812 138.485 459.965 138.631C460.117 138.777 460.323 138.86 460.538 138.86H523.826C524.042 138.86 524.248 138.777 524.4 138.631C524.552 138.485 524.638 138.286 524.638 138.08V87.3651C524.638 87.1583 524.552 86.9599 524.4 86.8137C524.248 86.6674 524.042 86.5851 523.826 86.5849L460.538 86.5848Z" fill="#E6E6E6"/>
<path d="M466.015 92.6316V132.813H518.35V92.6316H466.015Z" fill="white"/>
<path d="M369.992 66.9818H345.275C344.678 66.9841 344.09 66.8345 343.572 66.5483C343.055 66.2621 342.624 65.8494 342.326 65.3519C342.027 64.8545 341.87 64.29 341.872 63.7156C341.873 63.1412 342.032 62.5773 342.333 62.081L354.691 41.4978C354.701 41.4809 354.712 41.464 354.722 41.447C354.992 41.0093 355.366 40.6391 355.813 40.3667C356.26 40.0943 356.768 39.9275 357.295 39.8798L357.313 39.8782C357.418 39.869 357.526 39.8642 357.633 39.8642C358.231 39.8608 358.818 40.0103 359.335 40.2974C359.852 40.5845 360.28 40.9988 360.576 41.4978L372.934 62.081C373.233 62.5777 373.39 63.1411 373.389 63.7146C373.389 64.2881 373.232 64.8515 372.934 65.3481C372.636 65.8448 372.207 66.2572 371.691 66.544C371.174 66.8308 370.588 66.9818 369.992 66.9818ZM344.593 63.7114C344.594 63.8273 344.626 63.941 344.686 64.0414C344.745 64.1415 344.831 64.2246 344.934 64.2821C345.038 64.3395 345.155 64.3693 345.275 64.3681H369.992C370.111 64.3693 370.229 64.3396 370.333 64.2822C370.436 64.2247 370.522 64.1415 370.58 64.0414C370.641 63.9411 370.673 63.8276 370.674 63.7118C370.673 63.5979 370.641 63.4862 370.58 63.3882L358.222 42.8047C358.162 42.7053 358.077 42.6228 357.973 42.5655C357.87 42.5081 357.753 42.4779 357.633 42.4779C357.514 42.4779 357.397 42.5081 357.294 42.5655C357.19 42.6228 357.104 42.7053 357.045 42.8047L344.686 63.3879C344.626 63.4859 344.593 63.5975 344.593 63.7114Z" fill="#E6E6E6"/>
<path d="M357.633 46.0719C358.759 46.0719 359.672 45.1942 359.672 44.1116C359.672 43.0289 358.759 42.1512 357.633 42.1512C356.508 42.1512 355.595 43.0289 355.595 44.1116C355.595 45.1942 356.508 46.0719 357.633 46.0719Z" fill="#E6E6E6"/>
<path d="M498.882 88.2185H485.482C485.158 88.2197 484.839 88.1386 484.559 87.9834C484.278 87.8283 484.045 87.6045 483.883 87.3348C483.721 87.0651 483.636 86.7591 483.637 86.4476C483.637 86.1362 483.723 85.8305 483.886 85.5614L490.587 74.4018L490.604 74.3743C490.75 74.137 490.953 73.9363 491.195 73.7886C491.438 73.6409 491.713 73.5505 491.999 73.5246L492.008 73.5238C492.066 73.5187 492.124 73.5161 492.182 73.5161C492.506 73.5143 492.824 73.5954 493.105 73.751C493.385 73.9067 493.617 74.1313 493.777 74.4018L500.478 85.5614C500.639 85.8307 500.725 86.1362 500.725 86.4471C500.725 86.758 500.639 87.0635 500.478 87.3327C500.316 87.602 500.084 87.8256 499.804 87.9811C499.523 88.1366 499.206 88.2184 498.882 88.2185ZM485.112 86.4454C485.112 86.5082 485.13 86.5698 485.163 86.6242C485.194 86.6785 485.241 86.7236 485.297 86.7548C485.353 86.7859 485.417 86.802 485.482 86.8014H498.882C498.947 86.8021 499.011 86.786 499.067 86.7548C499.123 86.7236 499.17 86.6786 499.202 86.6242C499.234 86.5699 499.252 86.5083 499.252 86.4456C499.252 86.3838 499.234 86.3233 499.202 86.2702L492.501 75.1104C492.469 75.0565 492.422 75.0118 492.366 74.9807C492.31 74.9496 492.247 74.9332 492.182 74.9332C492.117 74.9332 492.054 74.9496 491.998 74.9807C491.942 75.0118 491.895 75.0565 491.863 75.1104L485.163 86.27C485.13 86.3231 485.112 86.3836 485.112 86.4454Z" fill="#E6E6E6"/>
<path d="M492.182 76.8817C492.793 76.8817 493.287 76.4059 493.287 75.8189C493.287 75.2319 492.793 74.7561 492.182 74.7561C491.572 74.7561 491.077 75.2319 491.077 75.8189C491.077 76.4059 491.572 76.8817 492.182 76.8817Z" fill="#E6E6E6"/>
<path d="M323.438 122.119C324.414 119.963 325.838 118.021 327.621 116.411C329.404 114.802 331.509 113.559 333.809 112.757C336.2 111.87 338.762 111.489 341.321 111.643C343.879 111.796 346.373 112.478 348.631 113.644C353.934 116.35 358.173 120.605 363.559 123.195C368.795 125.69 374.558 126.995 380.402 127.011C387.019 127.06 393.532 125.435 399.289 122.297C399.512 122.161 399.672 121.947 399.735 121.7C399.798 121.453 399.758 121.192 399.625 120.972C399.491 120.753 399.274 120.591 399.02 120.523C398.765 120.454 398.492 120.483 398.26 120.604C393.043 123.415 387.183 124.942 381.204 125.047C375.225 125.153 369.311 123.834 363.99 121.209C358.587 118.484 354.306 114.086 348.802 111.533C346.465 110.443 343.927 109.809 341.334 109.669C338.741 109.529 336.144 109.886 333.696 110.718C330.973 111.596 328.476 113.02 326.369 114.896C324.261 116.771 322.592 119.056 321.472 121.598C320.977 122.766 322.948 123.274 323.438 122.119V122.119Z" fill="#E6E6E6"/>
<path d="M321.827 140.443C333.14 138.015 344.876 138.054 356.171 140.558C366.205 142.796 376.564 146.821 386.909 143.819C391.531 142.478 395.767 139.795 398.142 135.666C398.777 134.561 397.017 133.571 396.382 134.677C391.911 142.45 381.437 143.762 373.164 142.487C367.637 141.634 362.309 139.925 356.869 138.702C345.172 136.065 333.005 136.014 321.285 138.553C320.005 138.828 320.547 140.718 321.827 140.443Z" fill="#E6E6E6"/>
<path d="M321.092 96.625C331.94 94.8509 343.05 95.231 353.739 97.7418C363.725 100.094 373.486 105.469 384.044 104.541C388.933 104.111 393.772 102.383 397.093 98.7864C397.962 97.846 396.525 96.4546 395.652 97.4003C392.787 100.502 388.661 102.11 384.427 102.545C379.546 103.045 374.751 102.073 370.106 100.692C364.965 99.1625 359.97 97.2254 354.742 95.9615C343.559 93.2613 331.912 92.8433 320.55 94.7347C319.26 94.9466 319.807 96.8361 321.092 96.625Z" fill="#E6E6E6"/>
<path d="M475.129 91.9696C479.815 96.5848 483.048 102.381 484.453 108.689C485.534 113.707 485.412 118.895 484.097 123.861C482.782 128.827 480.309 133.44 476.864 137.35C476.02 138.306 477.455 139.699 478.306 138.736C482.998 133.42 485.995 126.914 486.935 120C487.62 114.662 487.044 109.245 485.249 104.152C483.455 99.059 480.488 94.4209 476.57 90.5835C475.65 89.6812 474.209 91.0677 475.129 91.9696Z" fill="#E6E6E6"/>
<path d="M505.715 87.7865C499.467 92.1927 495.97 99.3048 495.477 106.661C494.965 114.315 498.001 121.707 502.889 127.65C505.742 131.072 509.149 134.029 512.98 136.408C514.081 137.101 515.103 135.404 514.008 134.716C507.767 130.789 502.427 125.211 499.59 118.516C498.208 115.337 497.491 111.926 497.481 108.479C497.471 105.033 498.168 101.618 499.531 98.431C501.059 94.8799 503.55 91.7883 506.744 89.4791C507.791 88.7407 506.775 87.0388 505.715 87.7865Z" fill="#E6E6E6"/>
<path d="M362.39 107.495C367.644 107.495 371.904 103.399 371.904 98.3467C371.904 93.2944 367.644 89.1986 362.39 89.1986C357.136 89.1986 352.877 93.2944 352.877 98.3467C352.877 103.399 357.136 107.495 362.39 107.495Z" fill="#E6E6E6"/>
</g>
<defs>
<clipPath id="clip0">
<rect width="600" height="400" fill="white"/>
</clipPath>
</defs>
</svg>
